<svg width="479" height="62" viewBox="0 0 479 62" fill="none" xmlns="http://www.w3.org/2000/svg">
<g filter="url(#filter0_d)">
<path d="M39.55 38L24.71 2.02H4.76V52H17.92V11.96H18.06L33.88 52H45.22L61.04 11.96H61.18V52H74.34V2.02H54.39L39.55 38ZM81.0518 27.01C81.0518 37.44 85.2518 53.4 112.132 53.4C139.012 53.4 143.212 37.44 143.212 27.01C143.212 16.58 139.012 0.619998 112.132 0.619998C85.2518 0.619998 81.0518 16.58 81.0518 27.01ZM95.4718 27.01C95.4718 19.24 99.8118 10.14 112.132 10.14C124.452 10.14 128.792 19.24 128.792 27.01C128.792 34.78 124.452 43.88 112.132 43.88C99.8118 43.88 95.4718 34.78 95.4718 27.01ZM163.535 11.54H177.395C187.755 11.54 191.675 17.28 191.675 26.52C191.675 37.09 187.615 42.48 178.655 42.48H163.535V11.54ZM149.955 52H182.295C197.975 52 205.675 42.06 205.675 27.01C205.675 11.96 198.255 2.02 181.105 2.02H149.955V52ZM255.601 36.88H255.461L229.211 2.02H213.461V52H226.621V17.14H226.761L253.991 52H268.761V2.02H255.601V36.88ZM278.266 52H291.846V2.02H278.266V52ZM314.951 23.51V2.02H301.371V52H314.951V37.16L322.861 30.37L339.871 52H358.211L333.501 22.11L356.461 2.02H338.191L314.951 23.51ZM375.86 23.51V2.02H362.28V52H375.86V37.16L383.77 30.37L400.78 52H419.12L394.41 22.11L417.37 2.02H399.1L375.86 23.51ZM438.868 52H452.448V34.57L474.568 2.02H458.608L445.658 23.79L432.708 2.02H416.748L438.868 34.57V52Z" fill="white"/>
</g>
<defs>
<filter id="filter0_d" x="0.76001" y="0.619995" width="477.808" height="60.78" filterUnits="userSpaceOnUse" color-interpolation-filters="sRGB">
<feFlood flood-opacity="0" result="BackgroundImageFix"/>
<feColorMatrix in="SourceAlpha" type="matrix" values="0 0 0 0 0 0 0 0 0 0 0 0 0 0 0 0 0 0 127 0"/>
<feOffset dy="4"/>
<feGaussianBlur stdDeviation="2"/>
<feColorMatrix type="matrix" values="0 0 0 0 0 0 0 0 0 0 0 0 0 0 0 0 0 0 0.25 0"/>
<feBlend mode="normal" in2="BackgroundImageFix" result="effect1_dropShadow"/>
<feBlend mode="normal" in="SourceGraphic" in2="effect1_dropShadow" result="shape"/>
</filter>
</defs>
</svg>
