<svg width="24" height="25" viewBox="0 0 24 25" fill="none" xmlns="http://www.w3.org/2000/svg">
<path d="M23.7061 22.5568L17.9363 16.7669C19.3665 15.0172 20.2286 12.776 20.2286 10.3333C20.2286 4.73023 15.698 0.183899 10.1143 0.183899C4.52571 0.183899 0 4.73023 0 10.3333C0 15.9363 4.52571 20.4827 10.1143 20.4827C12.5486 20.4827 14.7771 19.6225 16.5208 18.1874L22.2906 23.9723C22.6824 24.3655 23.3143 24.3655 23.7061 23.9723C24.098 23.584 24.098 22.945 23.7061 22.5568ZM10.1143 18.4626C5.64245 18.4626 2.00816 14.8157 2.00816 10.3333C2.00816 5.85084 5.64245 2.19903 10.1143 2.19903C14.5812 2.19903 18.2204 5.85084 18.2204 10.3333C18.2204 14.8157 14.5812 18.4626 10.1143 18.4626Z" fill="white"/>
</svg>
