<svg width="28" height="25" viewBox="0 0 28 25" fill="none" xmlns="http://www.w3.org/2000/svg">
<path d="M25.0938 2.41975C23.6644 0.985319 21.7719 0.201321 19.7521 0.201321C17.7324 0.201321 15.8341 0.991127 14.4047 2.42555L13.6581 3.17471L12.9 2.41394C11.4705 0.979512 9.56646 0.183899 7.54669 0.183899C5.5327 0.183899 3.63447 0.973704 2.21079 2.40232C0.781319 3.83675 -0.00575563 5.74158 3.16897e-05 7.76836C3.16897e-05 9.79514 0.792894 11.6942 2.22236 13.1286L13.0909 24.0349C13.2414 24.1859 13.444 24.2672 13.6407 24.2672C13.8375 24.2672 14.0401 24.1917 14.1905 24.0407L25.0823 13.1518C26.5117 11.7174 27.2988 9.81256 27.2988 7.78578C27.3046 5.759 26.5233 3.85417 25.0938 2.41975ZM23.9827 12.0426L13.6407 22.3798L3.32195 12.0252C2.18764 10.8869 1.56261 9.37701 1.56261 7.76836C1.56261 6.15971 2.18185 4.64979 3.31616 3.51734C4.44469 2.3849 5.94939 1.7577 7.54669 1.7577C9.14978 1.7577 10.6603 2.3849 11.7946 3.52315L13.1025 4.83562C13.4092 5.14341 13.9012 5.14341 14.2079 4.83562L15.5042 3.53477C16.6386 2.39652 18.1491 1.76932 19.7463 1.76932C21.3436 1.76932 22.8484 2.39652 23.9827 3.52896C25.117 4.66721 25.7362 6.17713 25.7362 7.78578C25.742 9.39443 25.117 10.9044 23.9827 12.0426Z" fill="white"/>
</svg>
